# xmcd CD database file
#
# Track frame offsets:
#	150
#	3238
#	29197
#	50093
#	72691
#	97439
#	118993
#	141325
#	165055
#	185934
#	206435
#	227067
#	247941
#	269073
#	290349
#
# Disc length: 4160 seconds
#
# Revision: 0
# Processed by: cddbd v1.5.2PL0 Copyright (c) Steve Scherf et al.
# Submitted via: CDex 1.51
#
DISCID=f1103e0f
DTITLE=Jamey Aebersold - Maiden Voyage Vol. 54 
DYEAR=1900
DGENRE=Jazz
TTITLE0=01 Tuning Notes
TTITLE1=02 Impressions
TTITLE2=03 Bb Blues
TTITLE3=04 Blue Bossa
TTITLE4=05 Summertime
TTITLE5=06 Watermelon Man
TTITLE6=07 Song For My Father
TTITLE7=08 Satin Doll
TTITLE8=09 Maiden Voyage
TTITLE9=10 F Blues
TTITLE10=11 Cantaloupe Island
TTITLE11=12 Footprints
TTITLE12=13 Doxy
TTITLE13=14 Autumn Leaves
TTITLE14=15 III-VI-II-V Progression
EXTD=
EXTT0=
EXTT1=
EXTT2=
EXTT3=
EXTT4=
EXTT5=
EXTT6=
EXTT7=
EXTT8=
EXTT9=
EXTT10=
EXTT11=
EXTT12=
EXTT13=
EXTT14=
PLAYORDER=
